<svg width="1276" height="678" viewBox="0 0 1276 678" fill="none" xmlns="http://www.w3.org/2000/svg">
<path d="M17.8008 11.6541H16.3008V13.1541V664.641V666.141H17.8008H1256.85H1258.35V664.641V13.1541V11.6541H1256.85H637.327H17.8008Z" stroke="white" stroke-width="3"/>
<line x1="2.19922" y1="617.083" x2="2.19924" y2="58.0754" stroke="white" stroke-width="3"/>
<line y1="-1.5" x2="1149.1" y2="-1.5" transform="matrix(-1 0 0 1 1213.22 3.27026)" stroke="white" stroke-width="3"/>
<line y1="-1.5" x2="1149.1" y2="-1.5" transform="matrix(-1 0 0 1 1213.22 677.367)" stroke="white" stroke-width="3"/>
<line y1="-1.5" x2="559.008" y2="-1.5" transform="matrix(-3.93012e-08 -1 -1 4.86165e-08 1272.35 617.083)" stroke="white" stroke-width="3"/>
<path d="M1213.22 1.62382C1206.81 1.62574 1273.33 64.1029 1273.83 59.1688" stroke="white" stroke-width="3"/>
<path d="M62.8284 1.62382C69.2362 1.62574 2.71445 64.1029 2.21926 59.1688" stroke="white" stroke-width="3"/>
<path d="M1213.22 674.729C1206.81 674.727 1273.33 612.25 1273.83 617.184" stroke="white" stroke-width="3"/>
<path d="M62.8284 674.729C69.2362 674.727 2.71445 612.25 2.21926 617.184" stroke="white" stroke-width="3"/>
<path d="M603.431 3.63584V3.63584C603.431 14.4348 619.348 23.3635 638.599 23.3635L639.823 23.3635" stroke="white" stroke-width="3"/>
<path d="M676.21 3.63584V3.63584C676.21 14.4348 660.293 23.3635 641.043 23.3636L639.819 23.3636" stroke="white" stroke-width="3"/>
<path d="M600.914 675.345V675.345C600.914 663.282 616.807 653.341 636.091 653.341L637.305 653.341" stroke="white" stroke-width="3"/>
<path d="M673.694 675.345V675.345C673.694 663.282 657.8 653.341 638.517 653.341L637.302 653.341" stroke="white" stroke-width="3"/>
</svg>
