<svg width="40" height="40" viewBox="0 0 40 40" fill="none" xmlns="http://www.w3.org/2000/svg">
<path d="M34.8751 21.9583C34.9584 21.3333 35.0001 20.6875 35.0001 20C35.0001 19.3333 34.9584 18.6667 34.8542 18.0417L39.0834 14.75C39.4584 14.4583 39.5626 13.8958 39.3334 13.4792L35.3334 6.5625C35.0834 6.10417 34.5626 5.95833 34.1042 6.10417L29.1251 8.10417C28.0834 7.3125 26.9792 6.64583 25.7501 6.14583L25.0001 0.854166C24.9167 0.354166 24.5001 0 24.0001 0H16.0001C15.5001 0 15.1042 0.354166 15.0209 0.854166L14.2709 6.14583C13.0417 6.64583 11.9167 7.33333 10.8959 8.10417L5.91673 6.10417C5.4584 5.9375 4.93757 6.10417 4.68757 6.5625L0.708399 13.4792C0.458399 13.9167 0.541732 14.4583 0.958399 14.75L5.18757 18.0417C5.0834 18.6667 5.00007 19.3542 5.00007 20C5.00007 20.6458 5.04173 21.3333 5.1459 21.9583L0.916732 25.25C0.541732 25.5417 0.437566 26.1042 0.666733 26.5208L4.66673 33.4375C4.91673 33.8958 5.43757 34.0417 5.8959 33.8958L10.8751 31.8958C11.9167 32.6875 13.0209 33.3542 14.2501 33.8542L15.0001 39.1458C15.1042 39.6458 15.5001 40 16.0001 40H24.0001C24.5001 40 24.9167 39.6458 24.9792 39.1458L25.7292 33.8542C26.9584 33.3542 28.0834 32.6875 29.1042 31.8958L34.0834 33.8958C34.5417 34.0625 35.0626 33.8958 35.3126 33.4375L39.3126 26.5208C39.5626 26.0625 39.4584 25.5417 39.0626 25.25L34.8751 21.9583ZM20.0001 27.5C15.8751 27.5 12.5001 24.125 12.5001 20C12.5001 15.875 15.8751 12.5 20.0001 12.5C24.1251 12.5 27.5001 15.875 27.5001 20C27.5001 24.125 24.1251 27.5 20.0001 27.5Z" fill="white"/>
</svg>
