<svg width="525" height="682" viewBox="0 0 525 682" fill="none" xmlns="http://www.w3.org/2000/svg">
<path d="M14 20.5002H12.5V22.0002V663V664.5H14H511H512.5V663V22.0002V20.5002H511H262.5H14Z" stroke="white" stroke-width="3"/>
<line x1="1.66797" y1="621.084" x2="1.66799" y2="62.0764" stroke="white" stroke-width="3"/>
<line x1="476.008" y1="6.50022" x2="51.4995" y2="8.77049" stroke="white" stroke-width="3"/>
<line x1="476.008" y1="675.5" x2="51.4999" y2="677.867" stroke="white" stroke-width="3"/>
<line y1="-1.5" x2="559.008" y2="-1.5" transform="matrix(-3.14345e-08 -1 -1 6.07831e-08 522 621.009)" stroke="white" stroke-width="3"/>
<path d="M474.124 2.14384C468.999 2.14576 522.206 64.6229 522.602 59.6888" stroke="white" stroke-width="3"/>
<path d="M50.4616 5.62406C55.5868 5.62598 2.3803 68.1031 1.98423 63.169" stroke="white" stroke-width="3"/>
<path d="M478.111 679.686C476.188 684.549 524.062 618.679 522.008 619.518" stroke="white" stroke-width="3"/>
<path d="M50.4616 678.73C55.5868 678.728 2.3803 616.251 1.98423 621.185" stroke="white" stroke-width="3"/>
<path d="M234.065 7.87266V7.87266C234.065 18.7052 246.756 27.6003 262.21 27.6003L263.172 27.6003" stroke="white" stroke-width="3"/>
<path d="M292.277 7.87266V7.87266C292.277 18.7052 279.586 27.6004 264.132 27.6004L263.169 27.6004" stroke="white" stroke-width="3"/>
<path d="M234.065 679.352V679.352C234.065 667.249 246.733 657.348 262.219 657.348L263.172 657.348" stroke="white" stroke-width="3"/>
<path d="M292.278 679.352V679.352C292.278 667.249 279.609 657.348 264.124 657.348L263.17 657.348" stroke="white" stroke-width="3"/>
</svg>
