<svg width="744" height="679" viewBox="0 0 744 679" fill="none" xmlns="http://www.w3.org/2000/svg">
<path d="M11.7744 12.6538H10.2744V14.1538V665.641V667.141H11.7744H731.253H732.753V665.641V14.1538V12.6538H731.253H371.514H11.7744Z" stroke="white" stroke-width="3"/>
<line x1="2.08594" y1="618.083" x2="2.08595" y2="59.0747" stroke="white" stroke-width="3"/>
<line y1="-1.5" x2="667.245" y2="-1.5" transform="matrix(-1 0 0 1 705.914 4.27002)" stroke="white" stroke-width="3"/>
<line y1="-1.5" x2="667.245" y2="-1.5" transform="matrix(-1 0 0 1 705.914 678.367)" stroke="white" stroke-width="3"/>
<line y1="-1.5" x2="559.008" y2="-1.5" transform="matrix(-2.2821e-08 -1 -1 8.3725e-08 740.25 618.083)" stroke="white" stroke-width="3"/>
<path d="M705.914 2.62357C702.194 2.62549 740.821 65.1027 741.108 60.1685" stroke="white" stroke-width="3"/>
<path d="M37.9207 2.62357C41.6414 2.62549 3.01439 65.1027 2.72685 60.1685" stroke="white" stroke-width="3"/>
<path d="M705.914 675.728C702.194 675.727 740.821 613.249 741.108 618.184" stroke="white" stroke-width="3"/>
<path d="M37.9207 675.728C41.6414 675.727 3.01439 613.249 2.72685 618.184" stroke="white" stroke-width="3"/>
<path d="M351.831 4.6356V4.6356C351.831 15.5243 360.995 24.3633 372.284 24.3633L372.962 24.3633" stroke="white" stroke-width="3"/>
<path d="M394.092 4.6356V4.6356C394.092 15.5243 384.928 24.3633 373.639 24.3633L372.96 24.3633" stroke="white" stroke-width="3"/>
<path d="M350.37 676.344V676.344C350.37 664.177 359.517 654.34 370.83 654.34L371.502 654.34" stroke="white" stroke-width="3"/>
<path d="M392.632 676.344V676.344C392.632 664.177 383.485 654.34 372.171 654.34L371.5 654.34" stroke="white" stroke-width="3"/>
</svg>
